<svg width="16" height="17" viewBox="0 0 16 17" fill="none" xmlns="http://www.w3.org/2000/svg">
<g clip-path="url(#clip0_11_159)">
<path fill-rule="evenodd" clip-rule="evenodd" d="M4.97596 1.23028C5.75795 1.19428 6.00729 1.18628 7.99929 1.18628C9.99129 1.18628 10.2406 1.19495 11.022 1.23028C11.8033 1.26561 12.3366 1.39028 12.8033 1.57095C13.292 1.75561 13.7353 2.04428 14.102 2.41761C14.4753 2.78361 14.7633 3.22628 14.9473 3.71561C15.1286 4.18228 15.2526 4.71561 15.2886 5.49561C15.3246 6.27895 15.3326 6.52828 15.3326 8.51961C15.3326 10.5116 15.324 10.7609 15.2886 11.5429C15.2533 12.3229 15.1286 12.8563 14.9473 13.3229C14.7633 13.8123 14.4748 14.2557 14.102 14.6223C13.7353 14.9956 13.292 15.2836 12.8033 15.4676C12.3366 15.6489 11.8033 15.7729 11.0233 15.8089C10.2406 15.8449 9.99129 15.8529 7.99929 15.8529C6.00729 15.8529 5.75795 15.8443 4.97596 15.8089C4.19595 15.7736 3.66262 15.6489 3.19595 15.4676C2.70657 15.2836 2.26317 14.9951 1.89662 14.6223C1.52354 14.2561 1.23483 13.8129 1.05062 13.3236C0.869955 12.8569 0.745955 12.3236 0.709955 11.5436C0.673955 10.7603 0.665955 10.5109 0.665955 8.51961C0.665955 6.52761 0.674621 6.27828 0.709955 5.49695C0.745288 4.71561 0.869955 4.18228 1.05062 3.71561C1.2351 3.22633 1.52403 2.78315 1.89729 2.41695C2.26331 2.04395 2.70627 1.75524 3.19529 1.57095C3.66195 1.39028 4.19529 1.26628 4.97529 1.23028H4.97596ZM10.9626 2.55028C10.1893 2.51495 9.95729 2.50761 7.99929 2.50761C6.04129 2.50761 5.80929 2.51495 5.03595 2.55028C4.32062 2.58295 3.93262 2.70228 3.67395 2.80295C3.33195 2.93628 3.08729 3.09428 2.83062 3.35095C2.58732 3.58765 2.40007 3.8758 2.28262 4.19428C2.18195 4.45295 2.06262 4.84095 2.02995 5.55628C1.99462 6.32961 1.98729 6.56161 1.98729 8.51961C1.98729 10.4776 1.99462 10.7096 2.02995 11.4829C2.06262 12.1983 2.18195 12.5863 2.28262 12.8449C2.39995 13.1629 2.58729 13.4516 2.83062 13.6883C3.06729 13.9316 3.35595 14.1189 3.67395 14.2363C3.93262 14.3369 4.32062 14.4563 5.03595 14.4889C5.80929 14.5243 6.04062 14.5316 7.99929 14.5316C9.95795 14.5316 10.1893 14.5243 10.9626 14.4889C11.678 14.4563 12.066 14.3369 12.3246 14.2363C12.6666 14.1029 12.9113 13.9449 13.168 13.6883C13.4113 13.4516 13.5986 13.1629 13.716 12.8449C13.8166 12.5863 13.936 12.1983 13.9686 11.4829C14.004 10.7096 14.0113 10.4776 14.0113 8.51961C14.0113 6.56161 14.004 6.32961 13.9686 5.55628C13.936 4.84095 13.8166 4.45295 13.716 4.19428C13.5826 3.85228 13.4246 3.60761 13.168 3.35095C12.9312 3.10766 12.6431 2.92042 12.3246 2.80295C12.066 2.70228 11.678 2.58295 10.9626 2.55028ZM7.06262 10.7803C7.58573 10.998 8.16821 11.0274 8.71057 10.8634C9.25294 10.6994 9.72155 10.3522 10.0364 9.88111C10.3512 9.40999 10.4927 8.84419 10.4367 8.28035C10.3806 7.71651 10.1306 7.18959 9.72929 6.78961C9.47345 6.53393 9.1641 6.33815 8.82351 6.21638C8.48292 6.0946 8.11957 6.04985 7.75962 6.08536C7.39966 6.12086 7.05206 6.23573 6.74182 6.4217C6.43159 6.60767 6.16645 6.86011 5.96549 7.16085C5.76453 7.46159 5.63275 7.80314 5.57963 8.16092C5.52652 8.5187 5.55339 8.88381 5.65831 9.22996C5.76324 9.57611 5.94361 9.89469 6.18644 10.1628C6.42926 10.4308 6.7285 10.6417 7.06262 10.7803ZM5.33395 5.85428C5.68397 5.50426 6.0995 5.22661 6.55682 5.03719C7.01414 4.84776 7.50429 4.75026 7.99929 4.75026C8.49429 4.75026 8.98444 4.84776 9.44176 5.03719C9.89907 5.22661 10.3146 5.50426 10.6646 5.85428C11.0146 6.2043 11.2923 6.61983 11.4817 7.07714C11.6711 7.53446 11.7686 8.02461 11.7686 8.51961C11.7686 9.01461 11.6711 9.50476 11.4817 9.96208C11.2923 10.4194 11.0146 10.8349 10.6646 11.1849C9.95773 11.8918 8.99898 12.289 7.99929 12.289C6.99959 12.289 6.04084 11.8918 5.33395 11.1849C4.62706 10.4781 4.22994 9.51931 4.22994 8.51961C4.22994 7.51992 4.62706 6.56117 5.33395 5.85428ZM12.6046 5.31161C12.6914 5.22979 12.7608 5.1314 12.8088 5.02226C12.8569 4.91312 12.8825 4.79546 12.8842 4.67623C12.886 4.55701 12.8638 4.43864 12.8189 4.32815C12.7741 4.21766 12.7076 4.11729 12.6233 4.03297C12.5389 3.94866 12.4386 3.88212 12.3281 3.83729C12.2176 3.79246 12.0992 3.77026 11.98 3.772C11.8608 3.77374 11.7431 3.79938 11.634 3.84741C11.5248 3.89544 11.4264 3.96488 11.3446 4.05161C11.1855 4.2203 11.0984 4.44436 11.1018 4.67623C11.1051 4.90811 11.1987 5.12953 11.3627 5.29351C11.5267 5.45748 11.7481 5.5511 11.98 5.55448C12.2119 5.55786 12.4359 5.47074 12.6046 5.31161Z" fill="white"/>
</g>
<defs>
<clipPath id="clip0_11_159">
<rect width="16" height="16" fill="white" transform="translate(-0.000732422 0.519531)"/>
</clipPath>
</defs>
</svg>
