<svg width="16" height="17" viewBox="0 0 16 17" fill="none" xmlns="http://www.w3.org/2000/svg">
<g clip-path="url(#clip0_11_155)">
<path fill-rule="evenodd" clip-rule="evenodd" d="M7.99927 0.519531C3.5826 0.519531 -0.000732422 4.10286 -0.000732422 8.51953C-0.000732422 12.9362 3.5826 16.5195 7.99927 16.5195C12.4073 16.5195 15.9993 12.9362 15.9993 8.51953C15.9993 4.10286 12.4073 0.519531 7.99927 0.519531ZM13.2833 4.20686C14.2682 5.40642 14.8133 6.9068 14.8279 8.45887C14.6026 8.41553 12.3466 7.95553 10.0733 8.2422C10.0206 8.12886 9.97727 8.00753 9.92527 7.8862C9.78388 7.55247 9.63361 7.22257 9.4746 6.89686C11.9906 5.87286 13.1359 4.3982 13.2833 4.20686ZM7.99927 1.7002C9.7346 1.7002 11.3226 2.3502 12.5286 3.41753C12.4073 3.59086 11.3746 4.97086 8.94527 5.88153C7.82527 3.82553 6.58527 2.14153 6.39393 1.88153C6.92015 1.75866 7.4589 1.69758 7.99927 1.69953V1.7002ZM5.0926 2.34153C5.2746 2.58486 6.48927 4.27686 7.62593 6.28953C4.4326 7.1402 1.6126 7.12286 1.30927 7.12286C1.75193 5.00553 3.18393 3.2442 5.0926 2.34153ZM1.16193 8.5282V8.3202C1.45727 8.32887 4.77127 8.3722 8.18193 7.3482C8.38127 7.7302 8.56327 8.1202 8.7366 8.51087C8.64993 8.53687 8.5546 8.56287 8.46793 8.58887C4.94527 9.72553 3.0706 12.8315 2.9146 13.0922C1.78621 11.8399 1.1618 10.2139 1.16193 8.5282ZM7.99927 15.3569C6.48061 15.3593 5.00503 14.8522 3.8086 13.9169C3.92993 13.6649 5.31793 10.9922 9.1706 9.64753C9.18793 9.63887 9.19727 9.63887 9.21393 9.6302C10.1773 12.1202 10.5673 14.2115 10.6719 14.8102C9.84727 15.1662 8.94527 15.3569 7.99927 15.3569ZM11.8086 14.1855C11.7393 13.7689 11.3746 11.7735 10.4806 9.31753C12.6239 8.97953 14.4979 9.53487 14.7326 9.61287C14.4373 11.5129 13.3439 13.1529 11.8086 14.1855Z" fill="white"/>
</g>
<defs>
<clipPath id="clip0_11_155">
<rect width="16" height="16" fill="white" transform="translate(-0.000732422 0.519531)"/>
</clipPath>
</defs>
</svg>
