<svg width="15" height="12" viewBox="0 0 15 12" fill="none" xmlns="http://www.w3.org/2000/svg">
<path d="M14.4993 5.97568C14.4993 5.94131 14.4993 5.90225 14.4977 5.85693C14.4961 5.73037 14.493 5.58818 14.4899 5.43662C14.4774 5.00068 14.4555 4.56631 14.4211 4.15693C14.3743 3.59287 14.3055 3.12256 14.2118 2.76943C14.1128 2.40092 13.9189 2.06482 13.6494 1.79474C13.3798 1.52466 13.0441 1.33005 12.6758 1.23037C12.2336 1.11162 11.368 1.03818 10.1493 0.992871C9.56958 0.970996 8.94927 0.956933 8.32895 0.949121C8.11177 0.945996 7.91021 0.944434 7.72896 0.942871H7.26958C7.08833 0.944434 6.88677 0.945996 6.66958 0.949121C6.04927 0.956933 5.42896 0.970996 4.84927 0.992871C3.63052 1.03975 2.76333 1.11318 2.32271 1.23037C1.95427 1.32981 1.61844 1.52433 1.34887 1.79445C1.0793 2.06457 0.885455 2.4008 0.786768 2.76943C0.691455 3.12256 0.624268 3.59287 0.577393 4.15693C0.543018 4.56631 0.521143 5.00068 0.508643 5.43662C0.503955 5.58818 0.502393 5.73037 0.50083 5.85693C0.50083 5.90225 0.499268 5.94131 0.499268 5.97568V6.06318C0.499268 6.09756 0.499268 6.13662 0.50083 6.18193C0.502393 6.3085 0.505518 6.45068 0.508643 6.60225C0.521143 7.03818 0.543018 7.47256 0.577393 7.88193C0.624268 8.446 0.693018 8.91631 0.786768 9.26943C0.986768 10.0179 1.57427 10.6085 2.32271 10.8085C2.76333 10.9272 3.63052 11.0007 4.84927 11.046C5.42896 11.0679 6.04927 11.0819 6.66958 11.0897C6.88677 11.0929 7.08833 11.0944 7.26958 11.096H7.72896C7.91021 11.0944 8.11177 11.0929 8.32895 11.0897C8.94927 11.0819 9.56958 11.0679 10.1493 11.046C11.368 10.9991 12.2352 10.9257 12.6758 10.8085C13.4243 10.6085 14.0118 10.0194 14.2118 9.26943C14.3071 8.91631 14.3743 8.446 14.4211 7.88193C14.4555 7.47256 14.4774 7.03818 14.4899 6.60225C14.4946 6.45068 14.4961 6.3085 14.4977 6.18193C14.4977 6.13662 14.4993 6.09756 14.4993 6.06318V5.97568ZM13.3743 6.05693C13.3743 6.08975 13.3743 6.12568 13.3727 6.16787C13.3711 6.28975 13.368 6.42412 13.3649 6.56943C13.354 6.98506 13.3321 7.40068 13.2993 7.78662C13.2571 8.28975 13.1977 8.70225 13.1243 8.97881C13.0274 9.33975 12.743 9.62568 12.3836 9.721C12.0555 9.8085 11.229 9.87881 10.1055 9.921C9.53677 9.94287 8.92427 9.95693 8.31333 9.96475C8.09927 9.96787 7.90083 9.96943 7.7227 9.96943H7.27583L6.6852 9.96475C6.07427 9.95693 5.46333 9.94287 4.89302 9.921C3.76958 9.87725 2.94145 9.8085 2.61489 9.721C2.25552 9.62412 1.97114 9.33975 1.87427 8.97881C1.80083 8.70225 1.74146 8.28975 1.69927 7.78662C1.66646 7.40068 1.64614 6.98506 1.63364 6.56943C1.62896 6.42412 1.62739 6.28818 1.62583 6.16787C1.62583 6.12568 1.62427 6.08818 1.62427 6.05693V5.98193C1.62427 5.94912 1.62427 5.91318 1.62583 5.871C1.62739 5.74912 1.63052 5.61475 1.63364 5.46943C1.64458 5.05381 1.66646 4.63818 1.69927 4.25225C1.74146 3.74912 1.80083 3.33662 1.87427 3.06006C1.97114 2.69912 2.25552 2.41318 2.61489 2.31787C2.94302 2.23037 3.76958 2.16006 4.89302 2.11787C5.46177 2.096 6.07427 2.08193 6.6852 2.07412C6.89927 2.071 7.09771 2.06943 7.27583 2.06943H7.7227L8.31333 2.07412C8.92427 2.08193 9.5352 2.096 10.1055 2.11787C11.229 2.16162 12.0571 2.23037 12.3836 2.31787C12.743 2.41475 13.0274 2.69912 13.1243 3.06006C13.1977 3.33662 13.2571 3.74912 13.2993 4.25225C13.3321 4.63818 13.3524 5.05381 13.3649 5.46943C13.3696 5.61475 13.3711 5.75068 13.3727 5.871C13.3727 5.91318 13.3743 5.95068 13.3743 5.98193V6.05693ZM6.10864 8.11318L9.73364 6.00381L6.10864 3.92568V8.11318Z" fill="white"/>
</svg>
